<?xml version="1.0" encoding="UTF-8"?>
<svg xmlns="http://www.w3.org/2000/svg" xmlns:xlink="http://www.w3.org/1999/xlink" width="396.629pt" height="210.112pt" viewBox="0 0 396.629 210.112" version="1.1">
<g id="surface1">
<path style="fill:none;stroke-width:0.12;stroke-linecap:butt;stroke-linejoin:round;stroke:rgb(6.47583%,5.92804%,5.235291%);stroke-opacity:1;stroke-miterlimit:10;" d="M 0.00046875 -0.0018125 C -0.679219 -2.419781 -4.765156 -1.322125 -6.655781 -2.986187 L -8.206563 -4.423687 L -7.866719 -4.876812 C -8.88625 -7.185406 -12.6675 -8.091656 -12.968281 -11.079937 C -8.206563 -13.310406 -5.105 -4.990094 -0.7925 -9.642437 C 0.00046875 -11.079937 1.777812 -10.853375 1.777812 -12.630719 C -2.76125 -14.861187 -11.647969 -11.872906 -11.874531 -19.626812 C -11.081563 -29.494 -20.4175 -35.392437 -20.077656 -45.15025 C -14.976094 -47.911969 -10.890156 -43.71275 -7.108906 -41.142437 C -4.120625 -39.060406 -3.780781 -36.036969 -3.440938 -32.935406 C -6.5425 -32.595562 -8.999531 -36.15025 -12.214375 -36.603375 C -13.651875 -34.939312 -11.308125 -33.845562 -11.647969 -32.1815 C -9.339375 -32.1815 -6.995625 -32.595562 -5.558125 -30.290875 C -5.558125 -28.927594 -5.897969 -27.076031 -4.233906 -26.622906 C -3.327656 -27.076031 -2.003438 -26.732281 -1.097188 -27.376812 L -0.7925 -27.076031 L -4.538594 -21.857281 C -1.097188 -24.27525 4.008281 -21.40025 4.992656 -27.076031 C 5.973125 -27.189312 6.883281 -28.927594 8.090312 -27.716656 C 8.090312 -25.71275 5.785625 -23.747906 4.992656 -21.517437 C 6.77 -19.966656 9.641094 -18.415875 9.527812 -15.958844 L 12.441875 -19.626812 C 14.3325 -18.415875 15.656719 -14.861187 18.414531 -15.505719 C 19.852031 -16.865094 21.215312 -19.173687 23.180156 -18.189312 C 26.203594 -14.861187 27.867656 -10.853375 31.422344 -8.091656 C 31.953594 -9.189312 32.52 -11.3065 31.727031 -12.857281 L 28.73875 -16.638531 C 29.418437 -19.626812 34.297344 -18.716656 32.52 -22.611187 L 30.289531 -24.505719 C 33.504375 -25.939312 37.398906 -27.076031 39.855937 -29.494 C 34.86375 -29.720562 30.516094 -24.505719 24.730937 -26.622906 C 19.625469 -29.947125 13.652812 -31.384625 7.336406 -31.841656 C 4.121562 -32.708844 2.230937 -36.15025 0.984844 -38.833844 C 4.008281 -39.060406 6.77 -36.943219 9.984844 -36.943219 C 9.527812 -40.611187 4.992656 -42.048687 3.215312 -44.810406 C 5.3325 -45.603375 7.67625 -46.357281 9.984844 -45.603375 L 10.55125 -41.822125 C 13.195781 -42.919781 17.434062 -40.802594 18.754375 -43.71275 C 19.094219 -45.15025 18.074687 -47.154156 19.55125 -48.021344 L 127.168437 -8.732281 C 179.352031 2.459125 237.812969 -2.759625 289.430156 -15.958844 C 290.074687 -17.849469 289.77 -20.193219 289.77 -22.158062 L 283.191875 -26.279156 L 282.887187 -162.564312 C 286.441875 -164.341656 291.320781 -165.548687 292.418437 -169.673687 L 292.191875 -192.966656 L 100.320781 -193.079937 L 32.746562 -178.974469 L 13.992656 -180.411969 L -17.433125 -170.427594 C -19.210469 -173.982281 -15.655781 -177.423687 -14.749531 -180.751812 C -18.757344 -177.876812 -26.394063 -178.747906 -31.19875 -179.767437 C -30.401875 -176.857281 -27.757344 -173.869 -28.51125 -169.786969 L -66.362813 -163.318219 L -66.362813 -76.763531 C -75.249531 -70.560406 -64.69875 -56.458844 -55.245625 -57.251812 L -60.050313 -51.689312 C -56.0425 -50.708844 -50.593281 -52.790875 -47.382344 -49.915875 C -47.155781 -48.818219 -47.722188 -48.021344 -48.589375 -47.380719 L -53.394063 -49.271344 C -52.940938 -47.380719 -51.843281 -46.134625 -52.940938 -44.353375 C -55.472188 -41.822125 -57.819844 -45.943219 -60.276875 -46.58775 C -62.921406 -47.685406 -65.265156 -48.9315 -68.140156 -49.271344 C -68.366719 -46.927594 -66.589375 -45.15025 -64.812031 -44.052594 C -62.468281 -44.470562 -60.276875 -43.599469 -59.253438 -41.369 C -58.913594 -40.83775 -59.706563 -40.497906 -60.050313 -40.044781 C -64.472188 -40.915875 -68.897969 -42.161969 -72.905781 -44.353375 C -74.683125 -44.923687 -75.589375 -43.599469 -76.687031 -42.501812 L -76.687031 -42.161969 C -69.9175 -42.161969 -66.13625 -32.595562 -58.499531 -36.603375 C -53.507344 -39.704937 -48.401875 -42.501812 -41.82375 -41.822125 C -42.163594 -38.607281 -45.378438 -35.622906 -48.175313 -33.27525 C -51.503438 -28.173687 -57.476094 -32.294781 -61.597188 -28.513531 C -64.358906 -29.267437 -64.925313 -35.052594 -69.237813 -32.935406 C -69.124531 -30.177594 -70.487813 -27.716656 -72.905781 -26.279156 C -74.116719 -25.826031 -73.69875 -27.189312 -74.456563 -27.716656 C -73.925313 -29.267437 -73.585469 -31.044781 -74.003438 -32.1815 C -76.800313 -32.708844 -80.468281 -27.376812 -81.452656 -32.935406 C -84.780781 -32.294781 -88.335469 -28.927594 -91.776875 -31.841656 C -90.98 -29.494 -89.315938 -27.189312 -87.01125 -26.279156 C -83.23 -24.27525 -77.253438 -28.927594 -75.894063 -23.747906 C -71.921406 -20.947125 -67.120625 -24.27525 -62.921406 -23.747906 C -54.151875 -16.072125 -48.933125 -30.630719 -41.82375 -34.033062 L -41.82375 -32.1815 L -51.503438 -16.298687 C -55.69875 -14.294781 -58.269063 -20.720562 -62.581563 -17.396344 C -64.585469 -16.638531 -66.362813 -14.747906 -68.140156 -13.310406 C -64.019063 -13.841656 -59.483906 -14.294781 -56.0425 -11.533062 L -62.921406 -4.876812 C -57.706563 -2.986187 -54.491719 -11.947125 -48.589375 -11.533062 C -46.737813 -11.533062 -47.722188 -9.076031 -46.284688 -8.091656 L -47.0425 -1.548687 C -44.394063 -5.294781 -41.405781 -9.642437 -42.616719 -15.505719 C -39.933125 -17.052594 -37.058125 -14.064312 -34.069844 -15.201031 C -35.1675 -17.849469 -39.401875 -17.396344 -39.933125 -20.720562 C -39.062031 -27.490094 -39.855 -36.263531 -31.952656 -38.833844 C -25.296406 -39.591656 -31.952656 -46.474469 -26.733906 -47.685406 C -25.296406 -39.818219 -23.749531 -32.1815 -21.214375 -24.728375 L -27.530781 -23.935406 C -26.507344 -21.970562 -23.2925 -22.158062 -22.952656 -19.626812 L -20.4175 -19.966656 C -20.077656 -18.189312 -19.624531 -16.298687 -19.32375 -14.408062 C -20.987813 -13.310406 -23.972188 -13.310406 -25.63625 -14.408062 C -28.284688 -12.630719 -32.065938 -12.290875 -34.069844 -9.982281 C -28.51125 -10.396344 -23.2925 -7.638531 -18.187031 -12.290875 C -17.319844 -10.853375 -16.63625 -8.318219 -17.772969 -7.072125 C -20.194844 -4.083844 -27.640156 -7.978375 -26.394063 -1.548687 C -24.5425 -2.079937 -23.972188 -4.536969 -21.968281 -5.1815 C -14.105 -4.763531 -8.88625 5.330219 0.00046875 -0.0018125 Z M 283.645 -19.927594 C 283.078594 -21.9315 280.203594 -20.83775 278.312969 -21.478375 L 129.816875 -21.177594 C 127.699687 -19.0565 129.36375 -13.728375 130.949687 -12.290875 C 168.879375 -2.951031 246.133281 -5.521344 283.645 -19.927594 Z M 27.000469 -19.966656 C 28.55125 -26.204937 21.555156 -23.064312 19.55125 -26.279156 C 18.680156 -26.279156 17.547344 -26.204937 17.469219 -25.52525 L 16.67625 -24.728375 C 18.906719 -21.21275 22.461406 -18.869 27.000469 -19.966656 Z M -31.952656 -51.689312 C -31.19875 -54.794781 -31.19875 -57.021344 -33.276875 -59.103375 L -28.51125 -59.5565 C -27.530781 -62.204937 -28.51125 -65.115094 -31.499531 -65.454937 C -32.519063 -64.661969 -34.296406 -65.568219 -35.1675 -64.661969 C -35.507344 -63.794781 -34.749531 -63.33775 -34.409688 -62.544781 C -36.718281 -61.220562 -39.968281 -63.794781 -41.82375 -60.654156 C -40.839375 -59.783062 -38.835469 -60.994 -38.077656 -59.5565 C -40.726094 -58.345562 -43.487813 -56.341656 -44.960469 -53.583844 L -44.960469 -47.341656 C -41.82375 -46.474469 -38.608906 -46.021344 -35.1675 -46.134625 Z M 265.039531 -53.017437 L 166.496562 -53.017437 C 183.699687 -47.685406 238.305156 -43.826031 265.039531 -53.017437 Z M 6.883281 -57.21275 C 5.785625 -58.232281 4.539531 -58.65025 3.215312 -58.763531 L 3.668437 -49.876812 C 8.887187 -48.021344 6.316875 -54.677594 6.883281 -57.21275 Z M -1.097188 -51.689312 C -1.851094 -55.435406 0.793437 -61.447125 -3.401875 -62.771344 C -4.085469 -60.009625 -3.741719 -55.888531 -3.741719 -52.447125 C -2.987813 -52.033062 -1.964375 -52.033062 -1.097188 -51.689312 Z M 48.062969 -138.513531 L 17.660625 -138.40025 L 17.660625 -52.865094 L 48.062969 -52.865094 Z M -11.647969 -70.638531 L -11.647969 -55.134625 L -8.206563 -53.583844 C -8.88625 -59.103375 -4.765156 -68.216656 -11.647969 -70.638531 Z M -21.401875 -88.107281 C -21.933125 -82.208844 -27.151875 -77.216656 -23.2925 -71.771344 C -19.737813 -67.46275 -19.284688 -61.786969 -15.843281 -57.704937 C -17.733906 -66.779156 -11.421406 -81.224469 -21.401875 -88.107281 Z M 200.453594 -57.365094 L 200.566875 -65.040875 L 197.918437 -65.154156 L 198.031719 -57.365094 Z M 233.387187 -57.365094 L 233.504375 -65.040875 L 230.816875 -65.154156 L 230.930156 -57.365094 Z M 200.453594 -72.224469 L 200.566875 -79.865094 L 197.918437 -79.978375 L 198.031719 -72.224469 Z M 233.387187 -72.224469 L 233.504375 -79.865094 L 230.816875 -79.978375 L 230.930156 -72.224469 Z M 200.453594 -87.994 L 200.566875 -95.669781 L 197.918437 -95.783062 L 198.031719 -87.994 Z M 233.387187 -87.994 L 233.504375 -95.669781 L 230.816875 -95.783062 L 230.930156 -87.994 Z M -41.444844 -64.017437 L -45.112813 -67.044781 C -47.343281 -65.568219 -48.6675 -63.490094 -49.878438 -61.486187 C -47.343281 -61.826031 -41.897969 -58.689312 -41.444844 -64.017437 Z M -51.425313 -67.802594 C -50.558125 -69.8065 -49.765156 -72.904156 -51.769063 -73.661969 L -59.671406 -75.099469 C -60.19875 -70.90025 -62.999531 -67.005719 -60.995625 -62.583844 C -59.331563 -61.786969 -57.214375 -62.697125 -55.437031 -61.786969 Z M 268.17625 -104.896344 L 197.918437 -104.896344 C 202.797344 -102.134625 209.148906 -100.244 214.254375 -102.704937 L 241.973125 -102.704937 C 248.211406 -97.90025 258.195781 -104.5565 265.305156 -99.790875 C 267.156719 -94.685406 263.30125 -89.240094 265.305156 -85.384625 C 267.609844 -82.927594 267.156719 -79.71275 266.629375 -76.497906 C 266.402812 -72.943219 261.750469 -70.1815 265.305156 -66.970562 C 266.629375 -65.419781 267.609844 -58.724469 268.17625 -56.947125 Z M -34.069844 -82.888531 C -33.843281 -84.099469 -34.827656 -84.892437 -35.1675 -85.763531 C -39.062031 -82.548687 -48.249531 -78.880719 -45.944844 -71.771344 C -44.620625 -69.122906 -41.370625 -68.103375 -38.835469 -68.103375 C -33.956563 -71.544781 -34.522969 -77.443219 -34.069844 -82.888531 Z M 13.574687 -108.904156 L 11.344219 -108.904156 L 11.344219 -51.427594 L 13.687969 -51.654156 Z M 3.137187 -109.697125 L 3.250469 -63.943219 L 6.578594 -62.204937 L 6.352031 -109.58775 Z M -3.741719 -86.896344 L -3.741719 -69.122906 L -1.097188 -67.005719 L -1.097188 -85.458844 Z M -11.647969 -95.103375 C -10.890156 -88.560406 -13.425313 -80.583844 -8.206563 -75.779156 C -8.88625 -82.130719 -4.765156 -92.341656 -11.647969 -95.103375 Z M -51.01125 -78.427594 C -50.218281 -80.091656 -48.214375 -81.185406 -47.343281 -82.849469 C -51.01125 -84.099469 -54.640156 -85.193219 -59.218281 -84.740094 C -59.745625 -82.96275 -59.444844 -80.958844 -59.671406 -79.1815 C -56.757344 -78.880719 -54.112813 -78.08775 -51.01125 -78.427594 Z M -25.601094 -94.724469 C -27.265156 -93.286969 -29.683125 -92.833844 -30.706563 -90.490094 L -28.245625 -80.165875 C -25.940938 -84.060406 -23.597188 -89.619 -25.601094 -94.724469 Z M -37.51125 -91.283062 C -43.374531 -95.177594 -52.257344 -94.724469 -59.706563 -94.724469 L -59.706563 -88.068219 C -51.390156 -91.283062 -43.144063 -80.845562 -37.51125 -91.283062 Z M 262.5825 -66.21275 L 239.059062 -66.21275 L 239.059062 -55.888531 L 262.5825 -55.888531 Z M 262.5825 -81.146344 L 239.059062 -81.146344 L 239.059062 -70.865094 L 262.5825 -70.865094 Z M 262.5825 -96.65025 L 239.059062 -96.65025 L 239.059062 -86.329937 L 262.5825 -86.329937 Z M 192.473125 -66.21275 L 168.42625 -66.21275 L 168.42625 -55.888531 L 192.473125 -55.888531 Z M 225.67625 -66.326031 L 206.996562 -66.326031 L 207.070781 -55.888531 L 225.67625 -55.888531 Z M 225.711406 -70.751812 L 225.789531 -81.185406 L 207.031719 -81.185406 L 207.031719 -70.751812 Z M 192.512187 -70.978375 L 192.512187 -81.185406 L 168.42625 -81.302594 L 168.42625 -70.978375 Z M 225.711406 -96.615094 L 207.145 -96.615094 L 207.145 -86.290875 L 225.711406 -86.290875 Z M 192.473125 -86.177594 L 192.586406 -96.615094 L 168.42625 -96.615094 L 168.42625 -86.177594 Z M -3.741719 -109.697125 L -3.741719 -92.380719 L -1.097188 -90.490094 L -1.097188 -109.697125 Z M -15.843281 -97.634625 C -16.98 -97.978375 -17.733906 -98.771344 -18.944844 -98.4315 L -16.409688 -92.872906 C -15.73 -94.310406 -16.069844 -96.08775 -15.843281 -97.634625 Z M -30.706563 -99.111187 C -38.003438 -105.994 -50.558125 -101.982281 -59.218281 -106.786969 L -59.632344 -98.658062 C -52.108906 -98.240094 -44.355 -98.353375 -37.776875 -95.783062 C -34.788594 -95.5565 -32.444844 -97.447125 -30.706563 -99.111187 Z M -11.647969 -110.115094 C -12.101094 -105.349469 -10.964375 -101.454937 -8.206563 -97.939312 L -7.866719 -110.115094 Z M -26.733906 -110.759625 C -38.0425 -110.872906 -47.835469 -112.763531 -59.706563 -111.552594 L -59.706563 -109.661969 C -49.726094 -107.771344 -37.851094 -110.982281 -30.062031 -104.103375 L -26.394063 -104.5565 Z M -15.843281 -106.447125 L -16.409688 -110.415875 L -18.187031 -110.415875 C -17.847188 -108.865094 -18.831563 -106.974469 -17.394063 -105.994 C -17.1675 -106.560406 -16.409688 -106.220562 -15.843281 -106.447125 Z M 135.902812 -105.236187 L 143.5825 -105.122906 L 143.5825 -26.544781 L 148.117656 -27.341656 L 148.117656 -105.236187 L 153.562969 -105.236187 L 153.449687 -27.642437 L 159.574687 -28.435406 L 159.652812 -96.689312 L 156.891094 -105.576031 L 192.172344 -105.65025 L 192.172344 -114.122906 L 124.484844 -114.009625 L 124.484844 -23.329937 L 135.902812 -25.447125 Z M 276.762187 -52.447125 L 271.316875 -52.107281 L 271.543437 -29.345562 L 276.762187 -29.345562 Z M 277.293437 -103.005719 C 275.402812 -103.646344 273.168437 -103.345562 271.164531 -103.345562 L 271.164531 -55.0565 L 277.293437 -55.0565 Z M 230.211406 -113.970562 L 197.691875 -114.083844 L 197.805156 -106.747906 L 230.211406 -106.747906 Z M 276.309062 -106.786969 L 276.496562 -114.122906 L 235.469219 -114.122906 L 235.469219 -106.786969 Z M -28.284688 -146.302594 C -38.569844 -145.396344 -50.140156 -145.0565 -60.769063 -143.732281 L -60.769063 -142.634625 L -28.284688 -145.622906 Z M 25.902812 -147.814312 L -19.132344 -147.626812 L -19.132344 -145.849469 L 17.469219 -144.829937 L 18.039531 -142.939312 L 25.902812 -142.822125 Z M 66.098125 -145.583844 L 66.211406 -151.142437 L 31.008281 -151.142437 L 31.008281 -145.583844 Z M 116.5825 -114.083844 C 102.930156 -114.728375 81.187969 -115.861187 68.672344 -115.974469 L 69.086406 -111.513531 L 116.277812 -109.318219 C 116.809062 -110.759625 116.5825 -112.533062 116.5825 -114.083844 Z M 13.80125 -113.896344 L 13.80125 -117.638531 L -18.491719 -117.865094 L -18.491719 -114.083844 Z M 65.078594 -115.974469 L 52.86375 -115.974469 L 52.86375 -114.427594 C 56.871562 -114.310406 60.844219 -113.5565 65.078594 -113.783062 Z M -27.491719 -118.095562 C -38.0425 -119.076031 -48.362813 -118.095562 -60.01125 -118.849469 L -60.01125 -115.220562 C -49.046406 -114.880719 -38.0425 -114.427594 -26.960469 -114.083844 Z M 276.195781 -118.208844 L 276.309062 -123.880719 L 124.598125 -123.880719 L 124.598125 -118.435406 Z M 115.824687 -117.904156 C 116.5825 -119.568219 116.164531 -121.876812 116.355937 -123.65025 L 69.086406 -123.65025 L 69.086406 -121.232281 L 114.465312 -119.341656 C 115.258281 -118.771344 114.387187 -117.224469 115.824687 -117.904156 Z M 65.078594 -124.447125 L 52.86375 -123.46275 L 52.86375 -121.232281 L 65.078594 -121.232281 Z M 13.574687 -126.107281 L -19.624531 -126.298687 L -19.284688 -123.083844 L 13.121562 -122.857281 Z M -27.491719 -126.751812 C -38.0425 -127.208844 -49.347188 -125.845562 -60.01125 -126.298687 C -60.577656 -125.845562 -60.237813 -124.861187 -60.237813 -124.1815 C -49.347188 -123.65025 -38.382344 -123.427594 -27.491719 -123.083844 Z M 58.687969 -133.747906 L 52.828594 -133.408062 L 52.828594 -128.189312 L 58.687969 -128.982281 Z M 115.937969 -134.204937 L 69.125469 -133.747906 L 69.125469 -128.982281 L 116.164531 -128.982281 Z M 276.156719 -128.267437 L 276.27 -132.576031 L 124.445781 -132.802594 L 124.445781 -128.341656 Z M -27.679219 -134.505719 C -38.343281 -134.732281 -49.460469 -133.974469 -60.19875 -133.747906 L -60.19875 -130.724469 L -27.679219 -131.517437 Z M 13.121562 -130.759625 L 13.121562 -134.771344 L -19.51125 -134.771344 L -19.624531 -130.533062 Z M 58.687969 -141.083844 L 52.828594 -140.857281 L 52.828594 -138.513531 L 58.687969 -138.513531 Z M 115.824687 -137.943219 L 116.355937 -141.954937 L 72.30125 -138.513531 Z M 276.156719 -141.236187 L 124.559062 -141.236187 L 124.559062 -137.568219 L 276.156719 -137.568219 Z M -27.679219 -140.896344 L -45.112813 -139.005719 L -27.679219 -139.345562 Z M 13.992656 -139.3065 C 2.004375 -139.83775 -7.069844 -141.048687 -19.284688 -141.048687 L -19.284688 -139.3065 Z M 116.391094 -149.591656 L 77.898906 -148.607281 L 75.324687 -144.486187 L 116.391094 -145.849469 Z M 276.156719 -145.204937 L 276.156719 -149.857281 L 124.559062 -149.744 L 124.445781 -145.204937 Z M -28.284688 -165.58775 L -61.487813 -160.369 L -61.562031 -148.497906 L -28.284688 -151.369 Z M 116.391094 -174.361187 L 81.641094 -168.611187 L 81.641094 -152.505719 L 116.391094 -153.829937 Z M 26.355937 -165.665875 L -19.249531 -165.77525 L -19.249531 -151.935406 L 26.242656 -151.935406 Z M 159.687969 -155.15025 L 156.246562 -158.138531 L 160.785625 -160.369 L 157.344219 -169.220562 C 154.586406 -168.232281 151.484844 -167.896344 148.910625 -169.560406 C 145.812969 -175.798687 142.145 -169.220562 138.816875 -167.783062 C 135.602031 -167.896344 131.480937 -168.689312 128.266094 -169.896344 C 126.715312 -172.583844 126.074687 -175.911969 124.598125 -171.677594 L 124.484844 -153.259625 L 147.816875 -153.259625 C 143.809062 -158.704937 151.484844 -160.896344 152.578594 -165.58775 C 156.473125 -162.451031 148.684062 -151.369 158.480937 -153.259625 Z M 182.984844 -159.271344 C 185.969219 -160.935406 191.074687 -158.744 192.965312 -162.486187 L 192.965312 -166.267437 C 192.324687 -164.376812 190.320781 -162.939312 188.543437 -162.486187 C 183.965312 -162.939312 180.449687 -165.513531 178.445781 -169.595562 C 175.875469 -169.142437 172.887187 -167.478375 171.902812 -164.833844 C 169.3325 -161.165875 176.895 -155.415875 169.219219 -156.396344 C 167.555156 -156.513531 167.102031 -160.1815 165.211406 -157.724469 L 164.000469 -155.943219 C 170.012187 -152.392437 179.656719 -150.954937 182.984844 -159.271344 Z M 204.61375 -156.927594 C 208.395 -152.8065 214.293437 -153.259625 218.8325 -154.470562 C 220.723125 -156.021344 218.074687 -157.497906 218.375469 -159.271344 C 218.262187 -162.486187 220.379375 -164.794781 220.266094 -168.009625 C 218.8325 -168.802594 217.055156 -167.02525 216.523906 -165.927594 C 215.730937 -162.790875 218.375469 -159.689312 215.730937 -157.497906 C 214.293437 -157.267437 212.742656 -157.267437 211.723125 -158.818219 L 211.723125 -160.369 C 209.187969 -159.158062 206.086406 -160.708844 205.180156 -162.904156 C 204.61375 -165.814312 204.840312 -169.142437 202.191875 -170.693219 L 197.766094 -170.693219 C 199.090312 -169.255719 201.852031 -169.482281 203.289531 -167.02525 C 198.523906 -163.923687 196.105937 -158.818219 193.531719 -154.0565 C 196.973125 -152.392437 200.074687 -155.380719 202.871562 -156.927594 Z M 244.242656 -160.747906 L 253.996562 -154.548687 C 256.758281 -157.646344 250.102031 -161.201031 253.203594 -165.173687 C 250.898906 -165.286969 248.55125 -161.505719 244.996562 -162.52525 C 242.125469 -164.302594 243.67625 -170.728375 238.684062 -168.611187 C 235.922344 -167.630719 236.453594 -164.415875 236.906719 -162.298687 C 243.219219 -160.1815 233.691875 -153.638531 241.027812 -154.091656 C 242.918437 -156.095562 242.012187 -159.310406 244.242656 -160.747906 Z M 277.516094 -160.369 C 273.2075 -157.497906 269.992656 -166.228375 266.437969 -160.029156 C 264.773906 -159.158062 263.453594 -161.466656 263.223125 -162.904156 L 262.77 -165.58775 C 261.445781 -165.58775 260.008281 -164.341656 259.898906 -162.904156 C 259.102031 -159.689312 262.016094 -158.02525 260.879375 -154.810406 C 266.437969 -157.911969 277.746562 -148.044781 276.762187 -158.818219 Z M 192.172344 -155.15025 C 191.262187 -156.927594 188.730937 -157.458844 186.953594 -156.701031 L 185.480937 -154.810406 C 187.141094 -153.146344 189.715312 -155.380719 192.172344 -155.15025 Z M 32.859844 -160.369 L 37.398906 -161.693219 L 37.512187 -167.591656 L 29.871562 -165.927594 L 29.758281 -153.829937 L 32.859844 -155.263531 Z M 69.844219 -160.029156 L 38.004375 -160.029156 L 38.117656 -154.509625 L 69.844219 -154.509625 Z M 227.375469 -155.603375 C 226.242656 -157.911969 228.699687 -159.236187 230.250469 -160.029156 C 231.348125 -159.576031 231.80125 -160.482281 232.367656 -161.126812 C 231.348125 -162.790875 229.344219 -163.697125 227.375469 -164.036969 C 225.031719 -162.451031 224.23875 -159.689312 223.594219 -157.458844 C 223.594219 -155.380719 225.789531 -155.380719 227.375469 -155.603375 Z M 168.387187 -166.724469 C 167.629375 -167.064312 166.836406 -167.630719 165.73875 -167.517437 C 164.758281 -166.079937 164.414531 -163.96275 165.172344 -162.298687 C 168.0825 -161.619 169.52 -164.302594 168.387187 -166.724469 Z M 74.379375 -162.904156 L 74.266094 -167.896344 L 42.086406 -167.783062 L 42.164531 -162.904156 Z M 38.078594 -171.486187 L 76.043437 -171.486187 L 76.121562 -174.853375 L 156.02 -189.259625 L 101.11375 -189.146344 L 33.656719 -175.380719 L 15.086406 -176.704937 L -8.772969 -169.1815 L 25.750469 -169.064312 Z M 287.578594 -175.911969 L 287.805156 -186.536969 L 174.285625 -186.423687 L 123.23875 -176.329937 Z M 122.7075 -18.833844 L 39.895 -47.228375 L 31.348125 -47.228375 L 124.785625 -13.611187 Z M 65.609844 -42.08775 L 65.531719 -47.189312 L 52.184062 -47.267437 Z M 56.871562 -108.603375 L 52.86375 -108.603375 L 52.86375 -52.90025 L 56.871562 -52.90025 Z M 65.305156 -52.90025 L 65.418437 -108.603375 L 61.86375 -108.603375 L 61.977031 -52.673687 Z M 115.637187 -25.52525 L 118.055156 -24.880719 L 118.055156 -104.517437 L 115.637187 -104.517437 Z M 106.3325 -28.247906 L 108.754375 -27.642437 L 108.754375 -104.5565 L 106.3325 -104.5565 Z M 97.031719 -31.497906 L 99.453594 -30.892437 L 99.453594 -104.5565 L 97.031719 -104.5565 Z M 88.484844 -34.072125 L 90.906719 -33.501812 L 90.906719 -104.5565 L 88.484844 -104.5565 Z M 79.977031 -36.869 L 82.398906 -36.33775 L 82.398906 -104.517437 L 79.977031 -104.517437 Z M 70.67625 -40.044781 L 73.094219 -39.552594 L 73.094219 -104.5565 L 70.67625 -104.5565 Z M 175.648906 -28.626812 L 178.484844 -28.626812 L 178.484844 -45.376812 C 177.574687 -45.263531 176.555156 -45.755719 175.648906 -46.208844 Z M 185.480937 -28.626812 L 188.277812 -28.626812 L 188.277812 -43.146344 C 187.367656 -43.033062 186.348125 -43.447125 185.480937 -43.865094 Z M 194.969219 -28.626812 L 197.766094 -28.626812 L 197.766094 -41.935406 C 196.859844 -41.822125 195.840312 -42.201031 194.969219 -42.579937 Z M 204.500469 -28.626812 L 207.297344 -28.626812 L 207.297344 -40.232281 C 206.42625 -40.158062 205.406719 -40.46275 204.500469 -40.802594 Z M 214.445781 -28.626812 L 217.242656 -28.626812 L 217.242656 -39.9315 C 216.336406 -39.630719 215.312969 -39.630719 214.445781 -39.970562 Z M 165.664531 -28.626812 L 168.461406 -28.626812 L 168.461406 -48.290875 C 167.594219 -48.173687 166.570781 -48.704937 165.664531 -49.271344 Z M 256.078594 -28.626812 L 253.281719 -28.626812 L 253.281719 -45.376812 C 254.148906 -45.263531 255.168437 -45.755719 256.078594 -46.208844 Z M 246.285625 -28.626812 L 243.484844 -28.626812 L 243.484844 -43.146344 C 244.355937 -43.033062 245.375469 -43.447125 246.285625 -43.865094 Z M 236.793437 -28.626812 L 233.992656 -28.626812 L 233.992656 -41.935406 C 234.86375 -41.822125 235.883281 -42.201031 236.793437 -42.579937 Z M 227.227031 -28.626812 L 224.42625 -28.626812 L 224.42625 -40.232281 C 225.336406 -40.158062 226.355937 -40.46275 227.227031 -40.802594 Z M 266.059062 -28.626812 L 263.262187 -28.626812 L 263.262187 -48.290875 C 264.168437 -48.173687 265.191875 -48.704937 266.059062 -49.271344 Z M 266.059062 -28.626812 " transform="matrix(1,0,0,-1,96.6675,9.8185)"/>
<path style=" stroke:none;fill-rule:evenodd;fill:rgb(6.47583%,5.92804%,5.235291%);fill-opacity:1;" d="M 96.667969 9.820312 C 95.988281 12.238281 91.902344 11.140625 90.011719 12.804688 L 88.460938 14.242188 L 88.800781 14.695312 C 87.78125 17.003906 84 17.910156 83.699219 20.898438 C 88.460938 23.128906 91.5625 14.808594 95.875 19.460938 C 96.667969 20.898438 98.445312 20.671875 98.445312 22.449219 C 93.90625 24.679688 85.019531 21.691406 84.792969 29.445312 C 85.585938 39.3125 76.25 45.210938 76.589844 54.96875 C 81.691406 57.730469 85.777344 53.53125 89.558594 50.960938 C 92.546875 48.878906 92.886719 45.855469 93.226562 42.753906 C 90.125 42.414062 87.667969 45.96875 84.453125 46.421875 C 83.015625 44.757812 85.359375 43.664062 85.019531 42 C 87.328125 42 89.671875 42.414062 91.109375 40.109375 C 91.109375 38.746094 90.769531 36.894531 92.433594 36.441406 C 93.339844 36.894531 94.664062 36.550781 95.570312 37.195312 L 95.875 36.894531 L 92.128906 31.675781 C 95.570312 34.09375 100.675781 31.21875 101.660156 36.894531 C 102.640625 37.007812 103.550781 38.746094 104.757812 37.535156 C 104.757812 35.53125 102.453125 33.566406 101.660156 31.335938 C 103.4375 29.785156 106.308594 28.234375 106.195312 25.777344 L 109.109375 29.445312 C 111 28.234375 112.324219 24.679688 115.082031 25.324219 C 116.519531 26.683594 117.882812 28.992188 119.847656 28.007812 C 122.871094 24.679688 124.535156 20.671875 128.089844 17.910156 C 128.621094 19.007812 129.1875 21.125 128.394531 22.675781 L 125.40625 26.457031 C 126.085938 29.445312 130.964844 28.535156 129.1875 32.429688 L 126.957031 34.324219 C 130.171875 35.757812 134.066406 36.894531 136.523438 39.3125 C 131.53125 39.539062 127.183594 34.324219 121.398438 36.441406 C 116.292969 39.765625 110.320312 41.203125 104.003906 41.660156 C 100.789062 42.527344 98.898438 45.96875 97.652344 48.652344 C 100.675781 48.878906 103.4375 46.761719 106.652344 46.761719 C 106.195312 50.429688 101.660156 51.867188 99.882812 54.628906 C 102 55.421875 104.34375 56.175781 106.652344 55.421875 L 107.21875 51.640625 C 109.863281 52.738281 114.101562 50.621094 115.421875 53.53125 C 115.761719 54.96875 114.742188 56.972656 116.21875 57.839844 L 223.835938 18.550781 C 276.019531 7.359375 334.480469 12.578125 386.097656 25.777344 C 386.742188 27.667969 386.4375 30.011719 386.4375 31.976562 L 379.859375 36.097656 L 379.554688 172.382812 C 383.109375 174.160156 387.988281 175.367188 389.085938 179.492188 L 388.859375 202.785156 L 196.988281 202.898438 L 129.414062 188.792969 L 110.660156 190.230469 L 79.234375 180.246094 C 77.457031 183.800781 81.011719 187.242188 81.917969 190.570312 C 77.910156 187.695312 70.273438 188.566406 65.46875 189.585938 C 66.265625 186.675781 68.910156 183.6875 68.15625 179.605469 L 30.304688 173.136719 L 30.304688 86.582031 C 21.417969 80.378906 31.96875 66.277344 41.421875 67.070312 L 36.617188 61.507812 C 40.625 60.527344 46.074219 62.609375 49.285156 59.734375 C 49.511719 58.636719 48.945312 57.839844 48.078125 57.199219 L 43.273438 59.089844 C 43.726562 57.199219 44.824219 55.953125 43.726562 54.171875 C 41.195312 51.640625 38.847656 55.761719 36.390625 56.40625 C 33.746094 57.503906 31.402344 58.75 28.527344 59.089844 C 28.300781 56.746094 30.078125 54.96875 31.855469 53.871094 C 34.199219 54.289062 36.390625 53.417969 37.414062 51.1875 C 37.753906 50.65625 36.960938 50.316406 36.617188 49.863281 C 32.195312 50.734375 27.769531 51.980469 23.761719 54.171875 C 21.984375 54.742188 21.078125 53.417969 19.980469 52.320312 L 19.980469 51.980469 C 26.75 51.980469 30.53125 42.414062 38.167969 46.421875 C 43.160156 49.523438 48.265625 52.320312 54.84375 51.640625 C 54.503906 48.425781 51.289062 45.441406 48.492188 43.09375 C 45.164062 37.992188 39.191406 42.113281 35.070312 38.332031 C 32.308594 39.085938 31.742188 44.871094 27.429688 42.753906 C 27.542969 39.996094 26.179688 37.535156 23.761719 36.097656 C 22.550781 35.644531 22.96875 37.007812 22.210938 37.535156 C 22.742188 39.085938 23.082031 40.863281 22.664062 42 C 19.867188 42.527344 16.199219 37.195312 15.214844 42.753906 C 11.886719 42.113281 8.332031 38.746094 4.890625 41.660156 C 5.6875 39.3125 7.351562 37.007812 9.65625 36.097656 C 13.4375 34.09375 19.414062 38.746094 20.773438 33.566406 C 24.746094 30.765625 29.546875 34.09375 33.746094 33.566406 C 42.515625 25.890625 47.734375 40.449219 54.84375 43.851562 L 54.84375 42 L 45.164062 26.117188 C 40.96875 24.113281 38.398438 30.539062 34.085938 27.214844 C 32.082031 26.457031 30.304688 24.566406 28.527344 23.128906 C 32.648438 23.660156 37.183594 24.113281 40.625 21.351562 L 33.746094 14.695312 C 38.960938 12.804688 42.175781 21.765625 48.078125 21.351562 C 49.929688 21.351562 48.945312 18.894531 50.382812 17.910156 L 49.625 11.367188 C 52.273438 15.113281 55.261719 19.460938 54.050781 25.324219 C 56.734375 26.871094 59.609375 23.882812 62.597656 25.019531 C 61.5 27.667969 57.265625 27.214844 56.734375 30.539062 C 57.605469 37.308594 56.8125 46.082031 64.714844 48.652344 C 71.371094 49.410156 64.714844 56.292969 69.933594 57.503906 C 71.371094 49.636719 72.917969 42 75.453125 34.546875 L 69.136719 33.753906 C 70.160156 31.789062 73.375 31.976562 73.714844 29.445312 L 76.25 29.785156 C 76.589844 28.007812 77.042969 26.117188 77.34375 24.226562 C 75.679688 23.128906 72.695312 23.128906 71.03125 24.226562 C 68.382812 22.449219 64.601562 22.109375 62.597656 19.800781 C 68.15625 20.214844 73.375 17.457031 78.480469 22.109375 C 79.347656 20.671875 80.03125 18.136719 78.894531 16.890625 C 76.472656 13.902344 69.027344 17.796875 70.273438 11.367188 C 72.125 11.898438 72.695312 14.355469 74.699219 15 C 82.5625 14.582031 87.78125 4.488281 96.667969 9.820312 M 380.3125 29.746094 C 379.746094 31.75 376.871094 30.65625 374.980469 31.296875 L 226.484375 30.996094 C 224.367188 28.875 226.03125 23.546875 227.617188 22.109375 C 265.546875 12.769531 342.800781 15.339844 380.3125 29.746094 M 123.667969 29.785156 C 125.21875 36.023438 118.222656 32.882812 116.21875 36.097656 C 115.347656 36.097656 114.214844 36.023438 114.136719 35.34375 L 113.34375 34.546875 C 115.574219 31.03125 119.128906 28.6875 123.667969 29.785156 M 64.714844 61.507812 C 65.46875 64.613281 65.46875 66.839844 63.390625 68.921875 L 68.15625 69.375 C 69.136719 72.023438 68.15625 74.933594 65.167969 75.273438 C 64.148438 74.480469 62.371094 75.386719 61.5 74.480469 C 61.160156 73.613281 61.917969 73.15625 62.257812 72.363281 C 59.949219 71.039062 56.699219 73.613281 54.84375 70.472656 C 55.828125 69.601562 57.832031 70.8125 58.589844 69.375 C 55.941406 68.164062 53.179688 66.160156 51.707031 63.402344 L 51.707031 57.160156 C 54.84375 56.292969 58.058594 55.839844 61.5 55.953125 Z M 361.707031 62.835938 L 263.164062 62.835938 C 280.367188 57.503906 334.972656 53.644531 361.707031 62.835938 M 103.550781 67.03125 C 102.453125 68.050781 101.207031 68.46875 99.882812 68.582031 L 100.335938 59.695312 C 105.554688 57.839844 102.984375 64.496094 103.550781 67.03125 M 95.570312 61.507812 C 94.816406 65.253906 97.460938 71.265625 93.265625 72.589844 C 92.582031 69.828125 92.925781 65.707031 92.925781 62.265625 C 93.679688 61.851562 94.703125 61.851562 95.570312 61.507812 M 144.730469 148.332031 L 114.328125 148.21875 L 114.328125 62.683594 L 144.730469 62.683594 Z M 85.019531 80.457031 L 85.019531 64.953125 L 88.460938 63.402344 C 87.78125 68.921875 91.902344 78.035156 85.019531 80.457031 M 75.265625 97.925781 C 74.734375 92.027344 69.515625 87.035156 73.375 81.589844 C 76.929688 77.28125 77.382812 71.605469 80.824219 67.523438 C 78.933594 76.597656 85.246094 91.042969 75.265625 97.925781 M 297.121094 67.183594 L 297.234375 74.859375 L 294.585938 74.972656 L 294.699219 67.183594 Z M 330.054688 67.183594 L 330.171875 74.859375 L 327.484375 74.972656 L 327.597656 67.183594 Z M 297.121094 82.042969 L 297.234375 89.683594 L 294.585938 89.796875 L 294.699219 82.042969 Z M 330.054688 82.042969 L 330.171875 89.683594 L 327.484375 89.796875 L 327.597656 82.042969 Z M 297.121094 97.8125 L 297.234375 105.488281 L 294.585938 105.601562 L 294.699219 97.8125 Z M 330.054688 97.8125 L 330.171875 105.488281 L 327.484375 105.601562 L 327.597656 97.8125 Z M 55.222656 73.835938 L 51.554688 76.863281 C 49.324219 75.386719 48 73.308594 46.789062 71.304688 C 49.324219 71.644531 54.769531 68.507812 55.222656 73.835938 M 45.242188 77.621094 C 46.109375 79.625 46.902344 82.722656 44.898438 83.480469 L 36.996094 84.917969 C 36.46875 80.71875 33.667969 76.824219 35.671875 72.402344 C 37.335938 71.605469 39.453125 72.515625 41.230469 71.605469 Z M 364.84375 114.714844 L 294.585938 114.714844 C 299.464844 111.953125 305.816406 110.0625 310.921875 112.523438 L 338.640625 112.523438 C 344.878906 107.71875 354.863281 114.375 361.972656 109.609375 C 363.824219 104.503906 359.96875 99.058594 361.972656 95.203125 C 364.277344 92.746094 363.824219 89.53125 363.296875 86.316406 C 363.070312 82.761719 358.417969 80 361.972656 76.789062 C 363.296875 75.238281 364.277344 68.542969 364.84375 66.765625 Z M 62.597656 92.707031 C 62.824219 93.917969 61.839844 94.710938 61.5 95.582031 C 57.605469 92.367188 48.417969 88.699219 50.722656 81.589844 C 52.046875 78.941406 55.296875 77.921875 57.832031 77.921875 C 62.710938 81.363281 62.144531 87.261719 62.597656 92.707031 M 110.242188 118.722656 L 108.011719 118.722656 L 108.011719 61.246094 L 110.355469 61.472656 Z M 99.804688 119.515625 L 99.917969 73.761719 L 103.246094 72.023438 L 103.019531 119.40625 Z M 92.925781 96.714844 L 92.925781 78.941406 L 95.570312 76.824219 L 95.570312 95.277344 Z M 85.019531 104.921875 C 85.777344 98.378906 83.242188 90.402344 88.460938 85.597656 C 87.78125 91.949219 91.902344 102.160156 85.019531 104.921875 M 45.65625 88.246094 C 46.449219 89.910156 48.453125 91.003906 49.324219 92.667969 C 45.65625 93.917969 42.027344 95.011719 37.449219 94.558594 C 36.921875 92.78125 37.222656 90.777344 36.996094 89 C 39.910156 88.699219 42.554688 87.90625 45.65625 88.246094 M 71.066406 104.542969 C 69.402344 103.105469 66.984375 102.652344 65.960938 100.308594 L 68.421875 89.984375 C 70.726562 93.878906 73.070312 99.4375 71.066406 104.542969 M 59.15625 101.101562 C 53.292969 104.996094 44.410156 104.542969 36.960938 104.542969 L 36.960938 97.886719 C 45.277344 101.101562 53.523438 90.664062 59.15625 101.101562 M 359.25 76.03125 L 335.726562 76.03125 L 335.726562 65.707031 L 359.25 65.707031 Z M 359.25 90.964844 L 335.726562 90.964844 L 335.726562 80.683594 L 359.25 80.683594 Z M 359.25 106.46875 L 335.726562 106.46875 L 335.726562 96.148438 L 359.25 96.148438 Z M 289.140625 76.03125 L 265.09375 76.03125 L 265.09375 65.707031 L 289.140625 65.707031 Z M 322.34375 76.144531 L 303.664062 76.144531 L 303.738281 65.707031 L 322.34375 65.707031 Z M 322.378906 80.570312 L 322.457031 91.003906 L 303.699219 91.003906 L 303.699219 80.570312 Z M 289.179688 80.796875 L 289.179688 91.003906 L 265.09375 91.121094 L 265.09375 80.796875 Z M 322.378906 106.433594 L 303.8125 106.433594 L 303.8125 96.109375 L 322.378906 96.109375 Z M 289.140625 95.996094 L 289.253906 106.433594 L 265.09375 106.433594 L 265.09375 95.996094 Z M 92.925781 119.515625 L 92.925781 102.199219 L 95.570312 100.308594 L 95.570312 119.515625 Z M 80.824219 107.453125 C 79.6875 107.796875 78.933594 108.589844 77.722656 108.25 L 80.257812 102.691406 C 80.9375 104.128906 80.597656 105.90625 80.824219 107.453125 M 65.960938 108.929688 C 58.664062 115.8125 46.109375 111.800781 37.449219 116.605469 L 37.035156 108.476562 C 44.558594 108.058594 52.3125 108.171875 58.890625 105.601562 C 61.878906 105.375 64.222656 107.265625 65.960938 108.929688 M 85.019531 119.933594 C 84.566406 115.167969 85.703125 111.273438 88.460938 107.757812 L 88.800781 119.933594 Z M 69.933594 120.578125 C 58.625 120.691406 48.832031 122.582031 36.960938 121.371094 L 36.960938 119.480469 C 46.941406 117.589844 58.816406 120.800781 66.605469 113.921875 L 70.273438 114.375 Z M 80.824219 116.265625 L 80.257812 120.234375 L 78.480469 120.234375 C 78.820312 118.683594 77.835938 116.792969 79.273438 115.8125 C 79.5 116.378906 80.257812 116.039062 80.824219 116.265625 M 232.570312 115.054688 L 240.25 114.941406 L 240.25 36.363281 L 244.785156 37.160156 L 244.785156 115.054688 L 250.230469 115.054688 L 250.117188 37.460938 L 256.242188 38.253906 L 256.320312 106.507812 L 253.558594 115.394531 L 288.839844 115.46875 L 288.839844 123.941406 L 221.152344 123.828125 L 221.152344 33.148438 L 232.570312 35.265625 Z M 373.429688 62.265625 L 367.984375 61.925781 L 368.210938 39.164062 L 373.429688 39.164062 Z M 373.960938 112.824219 C 372.070312 113.464844 369.835938 113.164062 367.832031 113.164062 L 367.832031 64.875 L 373.960938 64.875 Z M 326.878906 123.789062 L 294.359375 123.902344 L 294.472656 116.566406 L 326.878906 116.566406 Z M 372.976562 116.605469 L 373.164062 123.941406 L 332.136719 123.941406 L 332.136719 116.605469 Z M 68.382812 156.121094 C 58.097656 155.214844 46.527344 154.875 35.898438 153.550781 L 35.898438 152.453125 L 68.382812 155.441406 Z M 122.570312 157.632812 L 77.535156 157.445312 L 77.535156 155.667969 L 114.136719 154.648438 L 114.707031 152.757812 L 122.570312 152.640625 Z M 162.765625 155.402344 L 162.878906 160.960938 L 127.675781 160.960938 L 127.675781 155.402344 Z M 213.25 123.902344 C 199.597656 124.546875 177.855469 125.679688 165.339844 125.792969 L 165.753906 121.332031 L 212.945312 119.136719 C 213.476562 120.578125 213.25 122.351562 213.25 123.902344 M 110.46875 123.714844 L 110.46875 127.457031 L 78.175781 127.683594 L 78.175781 123.902344 Z M 161.746094 125.792969 L 149.53125 125.792969 L 149.53125 124.246094 C 153.539062 124.128906 157.511719 123.375 161.746094 123.601562 Z M 69.175781 127.914062 C 58.625 128.894531 48.304688 127.914062 36.65625 128.667969 L 36.65625 125.039062 C 47.621094 124.699219 58.625 124.246094 69.707031 123.902344 Z M 372.863281 128.027344 L 372.976562 133.699219 L 221.265625 133.699219 L 221.265625 128.253906 Z M 212.492188 127.722656 C 213.25 129.386719 212.832031 131.695312 213.023438 133.46875 L 165.753906 133.46875 L 165.753906 131.050781 L 211.132812 129.160156 C 211.925781 128.589844 211.054688 127.042969 212.492188 127.722656 M 161.746094 134.265625 L 149.53125 133.28125 L 149.53125 131.050781 L 161.746094 131.050781 Z M 110.242188 135.925781 L 77.042969 136.117188 L 77.382812 132.902344 L 109.789062 132.675781 Z M 69.175781 136.570312 C 58.625 137.027344 47.320312 135.664062 36.65625 136.117188 C 36.089844 135.664062 36.429688 134.679688 36.429688 134 C 47.320312 133.46875 58.285156 133.246094 69.175781 132.902344 Z M 155.355469 143.566406 L 149.496094 143.226562 L 149.496094 138.007812 L 155.355469 138.800781 Z M 212.605469 144.023438 L 165.792969 143.566406 L 165.792969 138.800781 L 212.832031 138.800781 Z M 372.824219 138.085938 L 372.9375 142.394531 L 221.113281 142.621094 L 221.113281 138.160156 Z M 68.988281 144.324219 C 58.324219 144.550781 47.207031 143.792969 36.46875 143.566406 L 36.46875 140.542969 L 68.988281 141.335938 Z M 109.789062 140.578125 L 109.789062 144.589844 L 77.15625 144.589844 L 77.042969 140.351562 Z M 155.355469 150.902344 L 149.496094 150.675781 L 149.496094 148.332031 L 155.355469 148.332031 Z M 212.492188 147.761719 L 213.023438 151.773438 L 168.96875 148.332031 Z M 372.824219 151.054688 L 221.226562 151.054688 L 221.226562 147.386719 L 372.824219 147.386719 Z M 68.988281 150.714844 L 51.554688 148.824219 L 68.988281 149.164062 Z M 110.660156 149.125 C 98.671875 149.65625 89.597656 150.867188 77.382812 150.867188 L 77.382812 149.125 Z M 213.058594 159.410156 L 174.566406 158.425781 L 171.992188 154.304688 L 213.058594 155.667969 Z M 372.824219 155.023438 L 372.824219 159.675781 L 221.226562 159.5625 L 221.113281 155.023438 Z M 68.382812 175.40625 L 35.179688 170.1875 L 35.105469 158.316406 L 68.382812 161.1875 Z M 213.058594 184.179688 L 178.308594 178.429688 L 178.308594 162.324219 L 213.058594 163.648438 Z M 123.023438 175.484375 L 77.417969 175.59375 L 77.417969 161.753906 L 122.910156 161.753906 Z M 256.355469 164.96875 L 252.914062 167.957031 L 257.453125 170.1875 L 254.011719 179.039062 C 251.253906 178.050781 248.152344 177.714844 245.578125 179.378906 C 242.480469 185.617188 238.8125 179.039062 235.484375 177.601562 C 232.269531 177.714844 228.148438 178.507812 224.933594 179.714844 C 223.382812 182.402344 222.742188 185.730469 221.265625 181.496094 L 221.152344 163.078125 L 244.484375 163.078125 C 240.476562 168.523438 248.152344 170.714844 249.246094 175.40625 C 253.140625 172.269531 245.351562 161.1875 255.148438 163.078125 Z M 279.652344 169.089844 C 282.636719 170.753906 287.742188 168.5625 289.632812 172.304688 L 289.632812 176.085938 C 288.992188 174.195312 286.988281 172.757812 285.210938 172.304688 C 280.632812 172.757812 277.117188 175.332031 275.113281 179.414062 C 272.542969 178.960938 269.554688 177.296875 268.570312 174.652344 C 266 170.984375 273.5625 165.234375 265.886719 166.214844 C 264.222656 166.332031 263.769531 170 261.878906 167.542969 L 260.667969 165.761719 C 266.679688 162.210938 276.324219 160.773438 279.652344 169.089844 M 301.28125 166.746094 C 305.0625 162.625 310.960938 163.078125 315.5 164.289062 C 317.390625 165.839844 314.742188 167.316406 315.042969 169.089844 C 314.929688 172.304688 317.046875 174.613281 316.933594 177.828125 C 315.5 178.621094 313.722656 176.84375 313.191406 175.746094 C 312.398438 172.609375 315.042969 169.507812 312.398438 167.316406 C 310.960938 167.085938 309.410156 167.085938 308.390625 168.636719 L 308.390625 170.1875 C 305.855469 168.976562 302.753906 170.527344 301.847656 172.722656 C 301.28125 175.632812 301.507812 178.960938 298.859375 180.511719 L 294.433594 180.511719 C 295.757812 179.074219 298.519531 179.300781 299.957031 176.84375 C 295.191406 173.742188 292.773438 168.636719 290.199219 163.875 C 293.640625 162.210938 296.742188 165.199219 299.539062 166.746094 Z M 340.910156 170.566406 L 350.664062 164.367188 C 353.425781 167.464844 346.769531 171.019531 349.871094 174.992188 C 347.566406 175.105469 345.21875 171.324219 341.664062 172.34375 C 338.792969 174.121094 340.34375 180.546875 335.351562 178.429688 C 332.589844 177.449219 333.121094 174.234375 333.574219 172.117188 C 339.886719 170 330.359375 163.457031 337.695312 163.910156 C 339.585938 165.914062 338.679688 169.128906 340.910156 170.566406 M 374.183594 170.1875 C 369.875 167.316406 366.660156 176.046875 363.105469 169.847656 C 361.441406 168.976562 360.121094 171.285156 359.890625 172.722656 L 359.4375 175.40625 C 358.113281 175.40625 356.675781 174.160156 356.566406 172.722656 C 355.769531 169.507812 358.683594 167.84375 357.546875 164.628906 C 363.105469 167.730469 374.414062 157.863281 373.429688 168.636719 Z M 288.839844 164.96875 C 287.929688 166.746094 285.398438 167.277344 283.621094 166.519531 L 282.148438 164.628906 C 283.808594 162.964844 286.382812 165.199219 288.839844 164.96875 M 129.527344 170.1875 L 134.066406 171.511719 L 134.179688 177.410156 L 126.539062 175.746094 L 126.425781 163.648438 L 129.527344 165.082031 Z M 166.511719 169.847656 L 134.671875 169.847656 L 134.785156 164.328125 L 166.511719 164.328125 Z M 324.042969 165.421875 C 322.910156 167.730469 325.367188 169.054688 326.917969 169.847656 C 328.015625 169.394531 328.46875 170.300781 329.035156 170.945312 C 328.015625 172.609375 326.011719 173.515625 324.042969 173.855469 C 321.699219 172.269531 320.90625 169.507812 320.261719 167.277344 C 320.261719 165.199219 322.457031 165.199219 324.042969 165.421875 M 265.054688 176.542969 C 264.296875 176.882812 263.503906 177.449219 262.40625 177.335938 C 261.425781 175.898438 261.082031 173.78125 261.839844 172.117188 C 264.75 171.4375 266.1875 174.121094 265.054688 176.542969 M 171.046875 172.722656 L 170.933594 177.714844 L 138.753906 177.601562 L 138.832031 172.722656 Z M 134.746094 181.304688 L 172.710938 181.304688 L 172.789062 184.671875 L 252.6875 199.078125 L 197.78125 198.964844 L 130.324219 185.199219 L 111.753906 186.523438 L 87.894531 179 L 122.417969 178.882812 Z M 384.246094 185.730469 L 384.472656 196.355469 L 270.953125 196.242188 L 219.90625 186.148438 Z M 219.375 28.652344 L 136.5625 57.046875 L 128.015625 57.046875 L 221.453125 23.429688 Z M 162.277344 51.90625 L 162.199219 57.007812 L 148.851562 57.085938 Z M 153.539062 118.421875 L 149.53125 118.421875 L 149.53125 62.71875 L 153.539062 62.71875 Z M 161.972656 62.71875 L 162.085938 118.421875 L 158.53125 118.421875 L 158.644531 62.492188 Z M 212.304688 35.34375 L 214.722656 34.699219 L 214.722656 114.335938 L 212.304688 114.335938 Z M 203 38.066406 L 205.421875 37.460938 L 205.421875 114.375 L 203 114.375 Z M 193.699219 41.316406 L 196.121094 40.710938 L 196.121094 114.375 L 193.699219 114.375 Z M 185.152344 43.890625 L 187.574219 43.320312 L 187.574219 114.375 L 185.152344 114.375 Z M 176.644531 46.6875 L 179.066406 46.15625 L 179.066406 114.335938 L 176.644531 114.335938 Z M 167.34375 49.863281 L 169.761719 49.371094 L 169.761719 114.375 L 167.34375 114.375 Z M 272.316406 38.445312 L 275.152344 38.445312 L 275.152344 55.195312 C 274.242188 55.082031 273.222656 55.574219 272.316406 56.027344 Z M 282.148438 38.445312 L 284.945312 38.445312 L 284.945312 52.964844 C 284.035156 52.851562 283.015625 53.265625 282.148438 53.683594 Z M 291.636719 38.445312 L 294.433594 38.445312 L 294.433594 51.753906 C 293.527344 51.640625 292.507812 52.019531 291.636719 52.398438 Z M 301.167969 38.445312 L 303.964844 38.445312 L 303.964844 50.050781 C 303.09375 49.976562 302.074219 50.28125 301.167969 50.621094 Z M 311.113281 38.445312 L 313.910156 38.445312 L 313.910156 49.75 C 313.003906 49.449219 311.980469 49.449219 311.113281 49.789062 Z M 262.332031 38.445312 L 265.128906 38.445312 L 265.128906 58.109375 C 264.261719 57.992188 263.238281 58.523438 262.332031 59.089844 Z M 352.746094 38.445312 L 349.949219 38.445312 L 349.949219 55.195312 C 350.816406 55.082031 351.835938 55.574219 352.746094 56.027344 Z M 342.953125 38.445312 L 340.152344 38.445312 L 340.152344 52.964844 C 341.023438 52.851562 342.042969 53.265625 342.953125 53.683594 Z M 333.460938 38.445312 L 330.660156 38.445312 L 330.660156 51.753906 C 331.53125 51.640625 332.550781 52.019531 333.460938 52.398438 Z M 323.894531 38.445312 L 321.09375 38.445312 L 321.09375 50.050781 C 322.003906 49.976562 323.023438 50.28125 323.894531 50.621094 Z M 362.726562 38.445312 L 359.929688 38.445312 L 359.929688 58.109375 C 360.835938 57.992188 361.859375 58.523438 362.726562 59.089844 Z M 362.726562 38.445312 "/>
<path style="fill:none;stroke-width:0.12;stroke-linecap:butt;stroke-linejoin:round;stroke:rgb(6.47583%,5.92804%,5.235291%);stroke-opacity:1;stroke-miterlimit:10;" d="M 0.001475 -0.00078125 L -27.416494 -0.00078125 L -27.416494 32.635937 L -0.111806 32.635937 Z M -2.912588 3.327344 L -23.975088 3.327344 L -23.975088 29.26875 L -2.799306 29.26875 Z M -2.912588 3.327344 " transform="matrix(1,0,0,-1,143.6704,97.925)"/>
<path style=" stroke:none;fill-rule:evenodd;fill:rgb(6.47583%,5.92804%,5.235291%);fill-opacity:1;" d="M 143.671875 97.925781 L 116.253906 97.925781 L 116.253906 65.289062 L 143.558594 65.289062 Z M 140.757812 94.597656 L 119.695312 94.597656 L 119.695312 68.65625 L 140.871094 68.65625 Z M 140.757812 94.597656 "/>
<path style="fill:none;stroke-width:0.12;stroke-linecap:butt;stroke-linejoin:round;stroke:rgb(6.47583%,5.92804%,5.235291%);stroke-opacity:1;stroke-miterlimit:10;" d="M 0.00193125 0.00015 L -0.115256 -28.285006 L -26.619163 -28.398288 L -26.619163 0.00015 Z M -3.365256 -24.577975 L -22.802756 -24.577975 L -22.802756 -2.796725 L -3.365256 -2.722506 Z M -3.365256 -24.577975 " transform="matrix(1,0,0,-1,143.3301,100.1564)"/>
<path style=" stroke:none;fill-rule:evenodd;fill:rgb(6.47583%,5.92804%,5.235291%);fill-opacity:1;" d="M 143.332031 100.15625 L 143.214844 128.441406 L 116.710938 128.554688 L 116.710938 100.15625 Z M 139.964844 124.734375 L 120.527344 124.734375 L 120.527344 102.953125 L 139.964844 102.878906 Z M 139.964844 124.734375 "/>
<path style="fill:none;stroke-width:0.12;stroke-linecap:butt;stroke-linejoin:round;stroke:rgb(6.47583%,5.92804%,5.235291%);stroke-opacity:1;stroke-miterlimit:10;" d="M -0.0004875 -0.0007625 C -1.891112 0.342987 -4.1958 0.417206 -4.988769 2.534394 L -4.535644 6.315644 C -1.437987 5.104706 -0.754394 2.874237 -0.0004875 -0.0007625 Z M -0.0004875 -0.0007625 " transform="matrix(1,0,0,-1,241.5708,173.1008)"/>
<path style=" stroke:none;fill-rule:evenodd;fill:rgb(6.47583%,5.92804%,5.235291%);fill-opacity:1;" d="M 241.570312 173.101562 C 239.679688 172.757812 237.375 172.683594 236.582031 170.566406 L 237.035156 166.785156 C 240.132812 167.996094 240.816406 170.226562 241.570312 173.101562 "/>
<path style="fill:none;stroke-width:0.12;stroke-linecap:butt;stroke-linejoin:round;stroke:rgb(6.47583%,5.92804%,5.235291%);stroke-opacity:1;stroke-miterlimit:10;" d="M -0.000525 0.00116875 C 0.339319 -2.76055 -2.117712 -3.971488 -4.008337 -5.1043 C -6.238806 -4.424613 -5.445837 -1.776175 -5.559119 0.00116875 C -4.348181 1.55195 0.112756 4.348825 -0.000525 0.00116875 Z M -0.000525 0.00116875 " transform="matrix(1,0,0,-1,232.6099,171.0207)"/>
<path style=" stroke:none;fill-rule:evenodd;fill:rgb(6.47583%,5.92804%,5.235291%);fill-opacity:1;" d="M 232.609375 171.019531 C 232.949219 173.78125 230.492188 174.992188 228.601562 176.125 C 226.371094 175.445312 227.164062 172.796875 227.050781 171.019531 C 228.261719 169.46875 232.722656 166.671875 232.609375 171.019531 "/>
</g>
</svg>
